STARTFONT 2.1
COMMENT
COMMENT Converted from OpenType font "VeraSe.ttf" by "otf2bdf 3.0".
COMMENT
FONT -FreeType-Bitstream Vera Serif-Medium-R-Normal--25-180-100-100-P-133-ISO10646-1
SIZE 18 100 100
FONTBOUNDINGBOX 36 30 -4 -6
STARTPROPERTIES 19
FOUNDRY "FreeType"
FAMILY_NAME "Bitstream Vera Serif"
WEIGHT_NAME "Medium"
SLANT "R"
SETWIDTH_NAME "Normal"
ADD_STYLE_NAME ""
PIXEL_SIZE 25
POINT_SIZE 180
RESOLUTION_X 100
RESOLUTION_Y 100
SPACING "P"
AVERAGE_WIDTH 133
CHARSET_REGISTRY "ISO10646"
CHARSET_ENCODING "1"
FONT_ASCENT 23
FONT_DESCENT 5
COPYRIGHT "Copyright (c) 2003 by Bitstream, Inc. All Rights Reserved."
_OTF_FONTFILE "VeraSe.ttf"
_OTF_PSNAME "BitstreamVeraSerif-Roman"
ENDPROPERTIES
CHARS 256
STARTCHAR 0020
ENCODING 32
SWIDTH 320 0
DWIDTH 8 0
BBX 0 0 0 0
BITMAP
ENDCHAR
STARTCHAR 0021
ENCODING 33
SWIDTH 400 0
DWIDTH 10 0
BBX 4 18 3 0
BITMAP
F0
60
60
60
60
60
60
60
60
60
60
60
60
00
00
60
F0
60
ENDCHAR
STARTCHAR 0022
ENCODING 34
SWIDTH 480 0
DWIDTH 12 0
BBX 7 7 2 11
BITMAP
C6
C6
C6
C6
C6
C6
C6
ENDCHAR
STARTCHAR 0023
ENCODING 35
SWIDTH 840 0
DWIDTH 21 0
BBX 17 18 2 0
BITMAP
018C00
018C00
030C00
030C00
031800
7FFF80
7FFF80
061800
063000
063000
0C3000
FFFF00
FFFF00
0C6000
186000
186000
18C000
18C000
ENDCHAR
STARTCHAR 0024
ENCODING 36
SWIDTH 640 0
DWIDTH 16 0
BBX 12 22 2 -3
BITMAP
0400
0400
0400
1FC0
74E0
6460
E420
E400
F400
7C00
7F80
1FE0
07E0
04F0
0470
C470
C460
E4E0
3F80
0400
0400
0400
ENDCHAR
STARTCHAR 0025
ENCODING 37
SWIDTH 960 0
DWIDTH 24 0
BBX 21 18 1 0
BITMAP
1E0180
630180
630300
C18600
C18600
C18C00
418800
631800
6331E0
3E3330
006618
00C618
00C618
018618
030618
030618
060330
0401E0
ENDCHAR
STARTCHAR 0026
ENCODING 38
SWIDTH 880 0
DWIDTH 22 0
BBX 19 18 2 0
BITMAP
07C000
1C7000
183000
383000
380000
1C0000
1E0000
3707E0
638100
E1C100
C1E100
C0F300
C07200
E03E00
E01C00
701E00
383700
1FC3E0
ENDCHAR
STARTCHAR 0027
ENCODING 39
SWIDTH 280 0
DWIDTH 7 0
BBX 2 7 2 11
BITMAP
C0
C0
C0
C0
C0
C0
C0
ENDCHAR
STARTCHAR 0028
ENCODING 40
SWIDTH 400 0
DWIDTH 10 0
BBX 6 23 2 -4
BITMAP
04
0C
18
30
60
60
60
E0
E0
E0
C0
C0
C0
C0
E0
E0
60
60
60
30
18
0C
04
ENDCHAR
STARTCHAR 0029
ENCODING 41
SWIDTH 400 0
DWIDTH 10 0
BBX 6 23 2 -4
BITMAP
80
C0
60
30
30
18
18
18
1C
1C
1C
1C
1C
1C
1C
18
18
18
30
30
60
C0
80
ENDCHAR
STARTCHAR 002A
ENCODING 42
SWIDTH 520 0
DWIDTH 13 0
BBX 11 11 1 7
BITMAP
0C00
0C00
8460
E4E0
3F80
0C00
3F80
E4E0
8C60
0C00
0C00
ENDCHAR
STARTCHAR 002B
ENCODING 43
SWIDTH 840 0
DWIDTH 21 0
BBX 15 16 3 0
BITMAP
0300
0300
0300
0300
0300
0300
0300
FFFE
FFFE
0300
0300
0300
0300
0300
0300
0300
ENDCHAR
STARTCHAR 002C
ENCODING 44
SWIDTH 320 0
DWIDTH 8 0
BBX 4 6 1 -3
BITMAP
30
30
30
70
60
C0
ENDCHAR
STARTCHAR 002D
ENCODING 45
SWIDTH 320 0
DWIDTH 8 0
BBX 6 2 1 6
BITMAP
FC
FC
ENDCHAR
STARTCHAR 002E
ENCODING 46
SWIDTH 320 0
DWIDTH 8 0
BBX 4 3 2 0
BITMAP
60
F0
60
ENDCHAR
STARTCHAR 002F
ENCODING 47
SWIDTH 320 0
DWIDTH 8 0
BBX 8 21 0 -3
BITMAP
03
03
03
06
06
06
0C
0C
0C
0C
18
18
18
30
30
30
60
60
60
C0
C0
ENDCHAR
STARTCHAR 0030
ENCODING 48
SWIDTH 640 0
DWIDTH 16 0
BBX 12 18 2 0
BITMAP
0F00
30C0
60E0
6060
E070
C070
C030
C030
C030
C030
C030
C030
C070
E070
6060
60E0
30C0
0F00
ENDCHAR
STARTCHAR 0031
ENCODING 49
SWIDTH 640 0
DWIDTH 16 0
BBX 9 18 3 0
BITMAP
0C00
3C00
6C00
CC00
0C00
0C00
0C00
0C00
0C00
0C00
0C00
0C00
0C00
0C00
0C00
0C00
0C00
7F80
ENDCHAR
STARTCHAR 0032
ENCODING 50
SWIDTH 640 0
DWIDTH 16 0
BBX 11 18 2 0
BITMAP
7F00
E1C0
C0E0
80E0
0060
0060
00E0
00C0
00C0
0180
0300
0600
0C00
1800
3020
6020
FFE0
FFE0
ENDCHAR
STARTCHAR 0033
ENCODING 51
SWIDTH 640 0
DWIDTH 16 0
BBX 12 18 2 0
BITMAP
3F80
E0C0
C060
C060
0060
00E0
01C0
0F00
01C0
0060
0070
0070
0070
0070
8070
C060
E0C0
3F80
ENDCHAR
STARTCHAR 0034
ENCODING 52
SWIDTH 640 0
DWIDTH 16 0
BBX 14 18 1 0
BITMAP
01C0
01C0
03C0
06C0
04C0
0CC0
18C0
18C0
30C0
60C0
60C0
C0C0
FFFC
00C0
00C0
00C0
00C0
07F8
ENDCHAR
STARTCHAR 0035
ENCODING 53
SWIDTH 640 0
DWIDTH 16 0
BBX 12 18 2 0
BITMAP
7FE0
7FE0
4000
4000
4000
4000
5F80
61C0
40E0
0070
0070
0070
0070
0070
C070
C0E0
E1C0
3F00
ENDCHAR
STARTCHAR 0036
ENCODING 54
SWIDTH 640 0
DWIDTH 16 0
BBX 12 18 2 0
BITMAP
0FC0
1860
3020
6020
E000
C000
CF80
F0E0
E060
E070
E030
E030
E030
E030
6070
6060
30C0
1F80
ENDCHAR
STARTCHAR 0037
ENCODING 55
SWIDTH 640 0
DWIDTH 16 0
BBX 12 18 2 0
BITMAP
FFF0
FFF0
C030
C060
0060
00C0
00C0
0080
0180
0180
0300
0300
0600
0600
0400
0C00
0C00
1800
ENDCHAR
STARTCHAR 0038
ENCODING 56
SWIDTH 640 0
DWIDTH 16 0
BBX 12 18 2 0
BITMAP
1F80
70E0
6060
E070
E070
6060
70C0
0F00
70C0
6060
E070
C030
C030
C030
E070
E060
70E0
1F80
ENDCHAR
STARTCHAR 0039
ENCODING 57
SWIDTH 640 0
DWIDTH 16 0
BBX 12 18 2 0
BITMAP
1F00
71C0
60E0
C060
C070
C070
C070
C070
C070
E070
70F0
1F30
0070
0060
4060
40C0
6180
3F00
ENDCHAR
STARTCHAR 003A
ENCODING 58
SWIDTH 320 0
DWIDTH 8 0
BBX 3 11 3 0
BITMAP
C0
E0
C0
00
00
00
00
00
C0
E0
C0
ENDCHAR
STARTCHAR 003B
ENCODING 59
SWIDTH 320 0
DWIDTH 8 0
BBX 5 14 1 -3
BITMAP
30
38
30
00
00
00
00
00
30
30
30
70
60
C0
ENDCHAR
STARTCHAR 003C
ENCODING 60
SWIDTH 840 0
DWIDTH 21 0
BBX 15 13 3 2
BITMAP
0002
001E
00FC
07E0
1F00
FC00
E000
F800
3F00
07E0
00FC
001E
0002
ENDCHAR
STARTCHAR 003D
ENCODING 61
SWIDTH 840 0
DWIDTH 21 0
BBX 15 7 3 4
BITMAP
FFFE
FFFE
0000
0000
0000
FFFE
FFFE
ENDCHAR
STARTCHAR 003E
ENCODING 62
SWIDTH 840 0
DWIDTH 21 0
BBX 15 13 3 2
BITMAP
8000
F000
7E00
0FC0
01F0
007E
000E
003E
01F0
0FC0
7E00
F000
8000
ENDCHAR
STARTCHAR 003F
ENCODING 63
SWIDTH 520 0
DWIDTH 13 0
BBX 10 18 2 0
BITMAP
7E00
C380
81C0
81C0
00C0
00C0
01C0
01C0
0380
0700
1C00
1800
1800
0000
0000
1800
3C00
1800
ENDCHAR
STARTCHAR 0040
ENCODING 64
SWIDTH 1000 0
DWIDTH 25 0
BBX 21 22 2 -4
BITMAP
01FC00
070380
0C00C0
180060
300030
60F310
618F18
C30708
C30308
C70308
C70308
C70308
C70308
C30310
C30730
618F60
60F380
300000
380000
0C0080
070380
01FC00
ENDCHAR
STARTCHAR 0041
ENCODING 65
SWIDTH 720 0
DWIDTH 18 0
BBX 18 18 0 0
BITMAP
00C000
01E000
01E000
016000
037000
027000
063000
043800
041800
0C1C00
081C00
0FFC00
100E00
100600
300700
200700
200300
F80FC0
ENDCHAR
STARTCHAR 0042
ENCODING 66
SWIDTH 720 0
DWIDTH 18 0
BBX 16 18 1 0
BITMAP
FFF8
181C
180E
180E
180E
180E
181C
1FF0
181C
180E
1807
1807
1807
1807
1807
180E
181C
FFF0
ENDCHAR
STARTCHAR 0043
ENCODING 67
SWIDTH 760 0
DWIDTH 19 0
BBX 16 18 1 0
BITMAP
03FC
0E0F
1807
3003
7001
7000
6000
E000
E000
E000
E000
6000
7000
7003
3003
1806
0E0C
03F0
ENDCHAR
STARTCHAR 0044
ENCODING 68
SWIDTH 800 0
DWIDTH 20 0
BBX 18 18 1 0
BITMAP
FFF000
181C00
180E00
180700
180380
180380
180180
1801C0
1801C0
1801C0
1801C0
180180
180380
180380
180700
180E00
181C00
FFF000
ENDCHAR
STARTCHAR 0045
ENCODING 69
SWIDTH 720 0
DWIDTH 18 0
BBX 15 18 1 0
BITMAP
FFFE
1802
1802
1802
1800
1818
1818
1FF8
1818
1818
1800
1800
1800
1800
1802
1802
1802
FFFE
ENDCHAR
STARTCHAR 0046
ENCODING 70
SWIDTH 680 0
DWIDTH 17 0
BBX 15 18 1 0
BITMAP
FFFE
1802
1802
1802
1800
1818
1818
1FF8
1818
1818
1800
1800
1800
1800
1800
1800
1800
FF00
ENDCHAR
STARTCHAR 0047
ENCODING 71
SWIDTH 800 0
DWIDTH 20 0
BBX 17 18 1 0
BITMAP
03FC00
0E0F00
180300
300300
700100
700000
600000
E00000
E00000
E01F80
E00180
600180
700180
700180
300180
180380
0E0F80
03FC00
ENDCHAR
STARTCHAR 0048
ENCODING 72
SWIDTH 880 0
DWIDTH 22 0
BBX 19 18 1 0
BITMAP
FF0FE0
180180
180180
180180
180180
180180
180180
1FFF80
180180
180180
180180
180180
180180
180180
180180
180180
180180
FF0FE0
ENDCHAR
STARTCHAR 0049
ENCODING 73
SWIDTH 400 0
DWIDTH 10 0
BBX 8 18 1 0
BITMAP
FF
18
18
18
18
18
18
18
18
18
18
18
18
18
18
18
18
FF
ENDCHAR
STARTCHAR 004A
ENCODING 74
SWIDTH 400 0
DWIDTH 10 0
BBX 11 23 -2 -5
BITMAP
1FE0
0380
0380
0380
0380
0380
0380
0380
0380
0380
0380
0380
0380
0380
0380
0380
0380
0380
0380
8300
8300
C600
7C00
ENDCHAR
STARTCHAR 004B
ENCODING 75
SWIDTH 760 0
DWIDTH 19 0
BBX 18 18 1 0
BITMAP
FF1F80
180E00
181800
183000
186000
18C000
198000
1B0000
1F0000
1F8000
1BC000
19E000
18F000
187800
183C00
181E00
180E00
FF07C0
ENDCHAR
STARTCHAR 004C
ENCODING 76
SWIDTH 680 0
DWIDTH 17 0
BBX 15 18 1 0
BITMAP
FF00
1800
1800
1800
1800
1800
1800
1800
1800
1800
1800
1800
1800
1800
1806
1806
1806
FFFE
ENDCHAR
STARTCHAR 004D
ENCODING 77
SWIDTH 1040 0
DWIDTH 26 0
BBX 23 18 1 0
BITMAP
FC003E
1C0038
1E0078
160078
1700F8
1300B8
1381B8
118138
11C338
10C238
10E638
10E438
107C38
107838
103838
103038
100038
FE00FE
ENDCHAR
STARTCHAR 004E
ENCODING 78
SWIDTH 880 0
DWIDTH 22 0
BBX 20 18 1 0
BITMAP
F807F0
1C0080
1E0080
170080
170080
138080
11C080
10E080
10E080
107080
103880
101C80
100C80
100E80
100780
100380
100180
FE0180
ENDCHAR
STARTCHAR 004F
ENCODING 79
SWIDTH 840 0
DWIDTH 21 0
BBX 18 18 1 0
BITMAP
03F000
0E0C00
180700
300380
700180
7001C0
6001C0
E001C0
E001C0
E001C0
E001C0
6001C0
7001C0
700180
300300
180700
0E0C00
03F000
ENDCHAR
STARTCHAR 0050
ENCODING 80
SWIDTH 680 0
DWIDTH 17 0
BBX 15 18 1 0
BITMAP
FFF0
1838
180C
180E
180E
180E
180E
180C
1838
1FF0
1800
1800
1800
1800
1800
1800
1800
FF00
ENDCHAR
STARTCHAR 0051
ENCODING 81
SWIDTH 840 0
DWIDTH 21 0
BBX 18 22 1 -4
BITMAP
03F000
0E0C00
180700
300380
700180
7001C0
6001C0
E001C0
E001C0
E001C0
E001C0
6001C0
7001C0
700180
300380
180700
0E0C00
03F000
003000
003800
001E00
000600
ENDCHAR
STARTCHAR 0052
ENCODING 82
SWIDTH 760 0
DWIDTH 19 0
BBX 18 18 1 0
BITMAP
FFF000
181C00
180E00
180E00
180E00
180E00
180E00
180E00
181C00
1FE000
183800
181800
181C00
180C00
180E00
180600
180700
FF03C0
ENDCHAR
STARTCHAR 0053
ENCODING 83
SWIDTH 680 0
DWIDTH 17 0
BBX 13 18 2 0
BITMAP
1FC0
7070
6030
E010
C010
E000
F000
7C00
3F80
0FE0
01F8
0038
0018
C018
C018
C038
F070
3FC0
ENDCHAR
STARTCHAR 0054
ENCODING 84
SWIDTH 680 0
DWIDTH 17 0
BBX 16 18 0 0
BITMAP
FFFF
C1C1
C1C1
C1C1
01C0
01C0
01C0
01C0
01C0
01C0
01C0
01C0
01C0
01C0
01C0
01C0
01C0
07F0
ENDCHAR
STARTCHAR 0055
ENCODING 85
SWIDTH 840 0
DWIDTH 21 0
BBX 19 18 1 0
BITMAP
FE07E0
380180
380180
380180
380180
380180
380180
380180
380180
380180
380180
180180
180180
180100
180100
1C0300
0E0600
03F800
ENDCHAR
STARTCHAR 0056
ENCODING 86
SWIDTH 720 0
DWIDTH 18 0
BBX 18 18 0 0
BITMAP
FC07C0
380100
380100
180300
1C0200
1C0600
0C0600
0E0400
0E0C00
070800
071800
031800
039000
03B000
01F000
01E000
01E000
00C000
ENDCHAR
STARTCHAR 0057
ENCODING 87
SWIDTH 1040 0
DWIDTH 26 0
BBX 26 18 0 0
BITMAP
FE0E0FC0
380E0300
380E0200
181E0200
181F0600
1C130600
1C130400
0C338400
0E238C00
0E218800
06618800
0661C800
0740D800
0740D000
03C0F000
0380F000
03806000
01806000
ENDCHAR
STARTCHAR 0058
ENCODING 88
SWIDTH 720 0
DWIDTH 18 0
BBX 18 18 0 0
BITMAP
FE1F80
1C0400
1C0C00
0E0800
0F1000
073000
03A000
03C000
01C000
01E000
01E000
037000
063800
043800
0C1C00
180E00
100E00
FC3FC0
ENDCHAR
STARTCHAR 0059
ENCODING 89
SWIDTH 680 0
DWIDTH 17 0
BBX 17 18 0 0
BITMAP
FE1F80
380600
380400
1C0C00
0C1800
0E1000
073000
072000
03C000
01C000
01C000
01C000
01C000
01C000
01C000
01C000
01C000
07F000
ENDCHAR
STARTCHAR 005A
ENCODING 90
SWIDTH 680 0
DWIDTH 17 0
BBX 15 18 1 0
BITMAP
7FFE
401E
403C
4038
0070
00F0
00E0
01C0
03C0
0780
0700
0F00
1E00
1C00
3802
7802
7002
FFFE
ENDCHAR
STARTCHAR 005B
ENCODING 91
SWIDTH 400 0
DWIDTH 10 0
BBX 6 22 2 -3
BITMAP
FC
C0
C0
C0
C0
C0
C0
C0
C0
C0
C0
C0
C0
C0
C0
C0
C0
C0
C0
C0
C0
FC
ENDCHAR
STARTCHAR 005C
ENCODING 92
SWIDTH 320 0
DWIDTH 8 0
BBX 8 21 0 -3
BITMAP
C0
C0
60
60
60
30
30
30
18
18
18
08
0C
0C
0C
06
06
06
03
03
03
ENDCHAR
STARTCHAR 005D
ENCODING 93
SWIDTH 400 0
DWIDTH 10 0
BBX 6 22 2 -3
BITMAP
FC
1C
1C
1C
1C
1C
1C
1C
1C
1C
1C
1C
1C
1C
1C
1C
1C
1C
1C
1C
1C
FC
ENDCHAR
STARTCHAR 005E
ENCODING 94
SWIDTH 840 0
DWIDTH 21 0
BBX 15 7 3 11
BITMAP
0380
07C0
0EE0
1C70
3838
600C
C006
ENDCHAR
STARTCHAR 005F
ENCODING 95
SWIDTH 520 0
DWIDTH 13 0
BBX 13 1 0 -6
BITMAP
FFF8
ENDCHAR
STARTCHAR 0060
ENCODING 96
SWIDTH 520 0
DWIDTH 13 0
BBX 5 5 2 15
BITMAP
E0
60
30
18
08
ENDCHAR
STARTCHAR 0061
ENCODING 97
SWIDTH 600 0
DWIDTH 15 0
BBX 13 13 1 0
BITMAP
1F80
70C0
60E0
4060
0060
1FE0
7060
6060
E060
E060
6060
70E0
3F78
ENDCHAR
STARTCHAR 0062
ENCODING 98
SWIDTH 640 0
DWIDTH 16 0
BBX 14 19 1 0
BITMAP
F000
3000
3000
3000
3000
3000
33E0
3C70
3838
3018
301C
301C
301C
301C
301C
3018
3838
3C70
F3E0
ENDCHAR
STARTCHAR 0063
ENCODING 99
SWIDTH 560 0
DWIDTH 14 0
BBX 12 13 1 0
BITMAP
0FC0
3860
7020
6020
E000
E000
E000
E000
E000
6030
7060
38E0
0F80
ENDCHAR
STARTCHAR 0064
ENCODING 100
SWIDTH 640 0
DWIDTH 16 0
BBX 14 19 1 0
BITMAP
00F0
0030
0030
0030
0030
0030
1F30
38B0
7070
6030
E030
E030
E030
E030
E030
6030
7070
38F0
1F3C
ENDCHAR
STARTCHAR 0065
ENCODING 101
SWIDTH 600 0
DWIDTH 15 0
BBX 13 13 1 0
BITMAP
0F80
38E0
7060
6030
E030
E030
FFF8
E000
E000
6030
7030
3860
0F80
ENDCHAR
STARTCHAR 0066
ENCODING 102
SWIDTH 360 0
DWIDTH 9 0
BBX 10 19 1 0
BITMAP
0F80
18C0
3040
3000
3000
3000
FF00
3000
3000
3000
3000
3000
3000
3000
3000
3000
3000
3000
FE00
ENDCHAR
STARTCHAR 0067
ENCODING 103
SWIDTH 640 0
DWIDTH 16 0
BBX 14 18 1 -5
BITMAP
1F3C
38F0
7070
6030
E030
E030
E030
E030
E030
6030
7070
38F0
1F30
0030
6030
6060
70E0
1F80
ENDCHAR
STARTCHAR 0068
ENCODING 104
SWIDTH 640 0
DWIDTH 16 0
BBX 14 19 1 0
BITMAP
F000
3000
3000
3000
3000
3000
33E0
3470
3830
3830
3030
3030
3030
3030
3030
3030
3030
3030
FCFC
ENDCHAR
STARTCHAR 0069
ENCODING 105
SWIDTH 320 0
DWIDTH 8 0
BBX 6 19 1 0
BITMAP
30
70
30
00
00
00
F0
30
30
30
30
30
30
30
30
30
30
30
FC
ENDCHAR
STARTCHAR 006A
ENCODING 106
SWIDTH 320 0
DWIDTH 8 0
BBX 7 24 -2 -5
BITMAP
06
0E
06
00
00
00
1E
06
06
06
06
06
06
06
06
06
06
06
06
06
86
86
CC
F8
ENDCHAR
STARTCHAR 006B
ENCODING 107
SWIDTH 600 0
DWIDTH 15 0
BBX 14 19 1 0
BITMAP
F000
3000
3000
3000
3000
3000
30FC
3060
30C0
3180
3300
3700
3F80
3980
31C0
30E0
3060
3070
FCFC
ENDCHAR
STARTCHAR 006C
ENCODING 108
SWIDTH 320 0
DWIDTH 8 0
BBX 6 19 1 0
BITMAP
F0
30
30
30
30
30
30
30
30
30
30
30
30
30
30
30
30
30
FC
ENDCHAR
STARTCHAR 006D
ENCODING 109
SWIDTH 960 0
DWIDTH 24 0
BBX 22 13 1 0
BITMAP
F3C3C0
347C60
383870
383030
303030
303030
303030
303030
303030
303030
303030
303030
FCFCFC
ENDCHAR
STARTCHAR 006E
ENCODING 110
SWIDTH 640 0
DWIDTH 16 0
BBX 14 13 1 0
BITMAP
F3E0
3470
3830
3830
3030
3030
3030
3030
3030
3030
3030
3030
FCFC
ENDCHAR
STARTCHAR 006F
ENCODING 111
SWIDTH 600 0
DWIDTH 15 0
BBX 13 13 1 0
BITMAP
0F80
38E0
7070
6030
E038
E038
E038
E038
E038
6030
7070
38E0
0F80
ENDCHAR
STARTCHAR 0070
ENCODING 112
SWIDTH 640 0
DWIDTH 16 0
BBX 14 18 1 -5
BITMAP
F3E0
3C70
3838
3018
301C
301C
301C
301C
301C
3018
3838
3C70
33E0
3000
3000
3000
3000
FC00
ENDCHAR
STARTCHAR 0071
ENCODING 113
SWIDTH 640 0
DWIDTH 16 0
BBX 14 18 1 -5
BITMAP
1F3C
38F0
7070
6030
E030
E030
E030
E030
E030
6030
7070
38F0
1F30
0030
0030
0030
0030
00FC
ENDCHAR
STARTCHAR 0072
ENCODING 114
SWIDTH 480 0
DWIDTH 12 0
BBX 11 13 1 0
BITMAP
F3E0
37E0
3C60
3800
3000
3000
3000
3000
3000
3000
3000
3000
FE00
ENDCHAR
STARTCHAR 0073
ENCODING 115
SWIDTH 520 0
DWIDTH 13 0
BBX 11 13 1 0
BITMAP
1F00
61C0
60C0
E040
6000
7C00
3F80
07C0
00C0
C0E0
C0C0
E1C0
3F00
ENDCHAR
STARTCHAR 0074
ENCODING 116
SWIDTH 400 0
DWIDTH 10 0
BBX 9 17 1 0
BITMAP
3000
3000
3000
3000
FF00
3000
3000
3000
3000
3000
3000
3000
3000
3000
3180
3100
1F00
ENDCHAR
STARTCHAR 0075
ENCODING 117
SWIDTH 640 0
DWIDTH 16 0
BBX 14 13 1 0
BITMAP
F0F0
3030
3030
3030
3030
3030
3030
3030
3030
3030
3070
38B0
0F3C
ENDCHAR
STARTCHAR 0076
ENCODING 118
SWIDTH 560 0
DWIDTH 14 0
BBX 14 13 0 0
BITMAP
FC7C
3010
3010
3830
1820
1C60
0C40
0C40
0EC0
0680
0780
0300
0300
ENDCHAR
STARTCHAR 0077
ENCODING 119
SWIDTH 840 0
DWIDTH 21 0
BBX 21 13 0 0
BITMAP
FC30F8
303820
383820
187860
185860
1C4C40
0CCCC0
0C8CC0
0E8E80
078780
070780
070700
030300
ENDCHAR
STARTCHAR 0078
ENCODING 120
SWIDTH 560 0
DWIDTH 14 0
BBX 14 13 0 0
BITMAP
FCF8
3820
1C60
0CC0
0E80
0700
0300
0780
05C0
0CC0
18E0
1070
78FC
ENDCHAR
STARTCHAR 0079
ENCODING 121
SWIDTH 560 0
DWIDTH 14 0
BBX 14 18 0 -5
BITMAP
FC7C
3010
3010
3830
1820
1C60
0C40
0C40
0EC0
0680
0780
0700
0300
0300
0200
0600
4400
7800
ENDCHAR
STARTCHAR 007A
ENCODING 122
SWIDTH 520 0
DWIDTH 13 0
BBX 11 13 1 0
BITMAP
FFE0
C0E0
C1C0
0380
0300
0700
0E00
1C00
1C00
3800
7020
E020
FFE0
ENDCHAR
STARTCHAR 007B
ENCODING 123
SWIDTH 640 0
DWIDTH 16 0
BBX 10 23 3 -4
BITMAP
03C0
0E00
0C00
0C00
0C00
0C00
0C00
0C00
0C00
0C00
1800
E000
1800
0C00
0C00
0C00
0C00
0C00
0C00
0C00
0C00
0E00
03C0
ENDCHAR
STARTCHAR 007C
ENCODING 124
SWIDTH 320 0
DWIDTH 8 0
BBX 2 25 3 -6
BITMAP
C0
C0
C0
C0
C0
C0
C0
C0
C0
C0
C0
C0
C0
C0
C0
C0
C0
C0
C0
C0
C0
C0
C0
C0
C0
ENDCHAR
STARTCHAR 007D
ENCODING 125
SWIDTH 640 0
DWIDTH 16 0
BBX 10 23 3 -4
BITMAP
F000
1800
0C00
0C00
0C00
0C00
0C00
0C00
0C00
0C00
0E00
03C0
0600
0C00
0C00
0C00
0C00
0C00
0C00
0C00
0C00
1800
F000
ENDCHAR
STARTCHAR 007E
ENCODING 126
SWIDTH 840 0
DWIDTH 21 0
BBX 15 4 3 6
BITMAP
3C02
FF86
C3FE
00F8
ENDCHAR
STARTCHAR 00A0
ENCODING 160
SWIDTH 640 0
DWIDTH 16 0
BBX 0 0 0 0
BITMAP
ENDCHAR
STARTCHAR 00A1
ENCODING 161
SWIDTH 400 0
DWIDTH 10 0
BBX 4 18 3 0
BITMAP
60
F0
60
00
00
60
60
60
60
60
60
60
60
60
60
60
60
F0
ENDCHAR
STARTCHAR 00A2
ENCODING 162
SWIDTH 640 0
DWIDTH 16 0
BBX 11 19 2 -3
BITMAP
0200
0200
0200
0FC0
32E0
6260
E220
E200
E200
E200
E200
E200
E220
6260
32C0
0F80
0200
0200
0200
ENDCHAR
STARTCHAR 00A3
ENCODING 163
SWIDTH 640 0
DWIDTH 16 0
BBX 12 18 2 0
BITMAP
07C0
1C60
1820
3820
3000
3000
3000
3000
FFC0
3000
3000
3000
3000
3000
3030
3030
3030
FFF0
ENDCHAR
STARTCHAR 00A4
ENCODING 164
SWIDTH 640 0
DWIDTH 16 0
BBX 14 13 1 2
BITMAP
C00C
6798
3FF0
1860
3030
3030
3030
3030
1860
3FF0
6798
E01C
4008
ENDCHAR
STARTCHAR 00A5
ENCODING 165
SWIDTH 640 0
DWIDTH 16 0
BBX 16 18 0 0
BITMAP
FE1F
380C
3808
1C18
0E10
0E30
0760
3F7C
03C0
0380
0180
3FFC
0180
0180
0180
0180
0180
0FF0
ENDCHAR
STARTCHAR 00A6
ENCODING 166
SWIDTH 320 0
DWIDTH 8 0
BBX 2 21 3 -4
BITMAP
C0
C0
C0
C0
C0
C0
C0
C0
C0
00
00
00
C0
C0
C0
C0
C0
C0
C0
C0
C0
ENDCHAR
STARTCHAR 00A7
ENCODING 167
SWIDTH 520 0
DWIDTH 13 0
BBX 10 20 1 -2
BITMAP
1F00
7180
6080
6000
7000
3800
3E00
4780
C1C0
E0C0
70C0
38C0
1F80
0700
0380
0180
41C0
4180
6380
3F00
ENDCHAR
STARTCHAR 00A8
ENCODING 168
SWIDTH 520 0
DWIDTH 13 0
BBX 8 3 2 16
BITMAP
63
E7
63
ENDCHAR
STARTCHAR 00A9
ENCODING 169
SWIDTH 1000 0
DWIDTH 25 0
BBX 19 18 3 0
BITMAP
01F000
0E0E00
180300
300180
21F080
431840
460840
460840
C60060
C60060
460040
460C40
431840
21F080
300180
180300
0E0C00
03F000
ENDCHAR
STARTCHAR 00AA
ENCODING 170
SWIDTH 480 0
DWIDTH 12 0
BBX 9 12 2 6
BITMAP
7C00
C700
8300
0300
7F00
C300
C300
C300
C300
7F80
0000
FF80
ENDCHAR
STARTCHAR 00AB
ENCODING 171
SWIDTH 600 0
DWIDTH 15 0
BBX 11 12 2 1
BITMAP
0420
0860
18C0
3180
E300
C700
C700
E300
3180
18C0
0860
0420
ENDCHAR
STARTCHAR 00AC
ENCODING 172
SWIDTH 840 0
DWIDTH 21 0
BBX 15 7 3 4
BITMAP
FFFE
FFFE
0006
0006
0006
0006
0006
ENDCHAR
STARTCHAR 00AD
ENCODING 173
SWIDTH 320 0
DWIDTH 8 0
BBX 6 2 1 6
BITMAP
FC
FC
ENDCHAR
STARTCHAR 00AE
ENCODING 174
SWIDTH 1000 0
DWIDTH 25 0
BBX 19 18 3 0
BITMAP
01F000
0E0E00
180300
300180
27F080
431840
431840
431840
C3E060
C33060
431840
431840
430C40
278E80
300180
180300
0E0C00
03F000
ENDCHAR
STARTCHAR 00AF
ENCODING 175
SWIDTH 520 0
DWIDTH 13 0
BBX 7 2 3 17
BITMAP
FE
FE
ENDCHAR
STARTCHAR 00B0
ENCODING 176
SWIDTH 520 0
DWIDTH 13 0
BBX 8 8 2 10
BITMAP
3C
7E
63
C3
C3
63
7E
3C
ENDCHAR
STARTCHAR 00B1
ENCODING 177
SWIDTH 840 0
DWIDTH 21 0
BBX 15 16 3 0
BITMAP
0300
0300
0300
0300
0300
FFFE
FFFE
0300
0300
0300
0300
0300
0000
0000
FFFE
FFFE
ENDCHAR
STARTCHAR 00B2
ENCODING 178
SWIDTH 400 0
DWIDTH 10 0
BBX 7 10 1 8
BITMAP
7C
C6
86
06
04
08
30
62
FE
FE
ENDCHAR
STARTCHAR 00B3
ENCODING 179
SWIDTH 400 0
DWIDTH 10 0
BBX 8 10 1 8
BITMAP
7C
46
86
06
18
06
03
83
C6
7C
ENDCHAR
STARTCHAR 00B4
ENCODING 180
SWIDTH 520 0
DWIDTH 13 0
BBX 5 5 5 15
BITMAP
18
30
60
40
C0
ENDCHAR
STARTCHAR 00B5
ENCODING 181
SWIDTH 640 0
DWIDTH 16 0
BBX 14 18 1 -5
BITMAP
F0F0
3030
3030
3030
3030
3030
3030
3030
3030
3030
3070
38F0
3F3C
3000
3000
3000
3000
FC00
ENDCHAR
STARTCHAR 00B6
ENCODING 182
SWIDTH 640 0
DWIDTH 16 0
BBX 12 20 2 -2
BITMAP
1FF0
7E20
7E20
FE20
FE20
FE20
FE20
7E20
3E20
0E20
0620
0620
0620
0620
0620
0620
0620
0620
0620
0620
ENDCHAR
STARTCHAR 00B7
ENCODING 183
SWIDTH 320 0
DWIDTH 8 0
BBX 4 3 2 7
BITMAP
60
F0
60
ENDCHAR
STARTCHAR 00B8
ENCODING 184
SWIDTH 520 0
DWIDTH 13 0
BBX 5 5 4 -5
BITMAP
30
10
18
F8
F0
ENDCHAR
STARTCHAR 00B9
ENCODING 185
SWIDTH 400 0
DWIDTH 10 0
BBX 6 10 2 8
BITMAP
30
70
B0
30
30
30
30
30
30
FC
ENDCHAR
STARTCHAR 00BA
ENCODING 186
SWIDTH 480 0
DWIDTH 12 0
BBX 10 12 1 6
BITMAP
1E00
6300
6180
C180
C1C0
C1C0
C180
6180
6300
1E00
0000
7F80
ENDCHAR
STARTCHAR 00BB
ENCODING 187
SWIDTH 600 0
DWIDTH 15 0
BBX 11 12 2 1
BITMAP
8400
4200
6180
31C0
1CE0
0C60
0C60
1CE0
31C0
6180
4200
8400
ENDCHAR
STARTCHAR 00BC
ENCODING 188
SWIDTH 960 0
DWIDTH 24 0
BBX 21 18 2 0
BITMAP
300100
700300
B00600
300600
300C00
301800
301800
303000
306060
FC6060
00C0A0
008120
018220
030420
0307F8
060020
0C0020
0C00F8
ENDCHAR
STARTCHAR 00BD
ENCODING 189
SWIDTH 960 0
DWIDTH 24 0
BBX 21 18 2 0
BITMAP
300100
700300
B00600
300600
300C00
301800
301800
303000
3063E0
FC6630
00C418
008010
018030
030060
030080
060308
0C07F8
0C07F8
ENDCHAR
STARTCHAR 00BE
ENCODING 190
SWIDTH 960 0
DWIDTH 24 0
BBX 22 18 1 0
BITMAP
7C0080
460180
860300
060300
180600
060C00
030C00
831800
C63030
7C3030
006050
004090
00C110
018210
0183FC
030010
060010
06007C
ENDCHAR
STARTCHAR 00BF
ENCODING 191
SWIDTH 520 0
DWIDTH 13 0
BBX 10 18 2 0
BITMAP
0600
0F00
0600
0000
0000
0600
0600
0E00
3800
7000
E000
E000
C000
C000
C040
E0C0
71C0
1F80
ENDCHAR
STARTCHAR 00C0
ENCODING 192
SWIDTH 720 0
DWIDTH 18 0
BBX 18 24 0 0
BITMAP
038000
018000
00C000
000000
000000
000000
00C000
01E000
01E000
016000
037000
027000
063000
043800
041800
0C1C00
081C00
0FFC00
100E00
100600
300700
200700
200300
F80FC0
ENDCHAR
STARTCHAR 00C1
ENCODING 193
SWIDTH 720 0
DWIDTH 18 0
BBX 18 24 0 0
BITMAP
007000
006000
00C000
000000
000000
000000
00C000
01E000
01E000
016000
037000
027000
063000
043800
041800
0C1C00
081C00
0FFC00
100E00
100600
300700
200700
200300
F80FC0
ENDCHAR
STARTCHAR 00C2
ENCODING 194
SWIDTH 720 0
DWIDTH 18 0
BBX 18 24 0 0
BITMAP
01E000
01F000
021000
000000
000000
000000
00C000
01E000
01E000
016000
037000
027000
063000
043800
041800
0C1C00
081C00
0FFC00
100E00
100600
300700
200700
200300
F80FC0
ENDCHAR
STARTCHAR 00C3
ENCODING 195
SWIDTH 720 0
DWIDTH 18 0
BBX 18 23 0 0
BITMAP
038800
07F800
047000
000000
000000
00C000
01E000
01E000
016000
037000
027000
063000
043800
041800
0C1C00
081C00
0FFC00
100E00
100600
300700
200700
200300
F80FC0
ENDCHAR
STARTCHAR 00C4
ENCODING 196
SWIDTH 720 0
DWIDTH 18 0
BBX 18 23 0 0
BITMAP
033000
073800
033000
000000
000000
00C000
01E000
01E000
016000
037000
027000
063000
043800
041800
0C1C00
081C00
0FFC00
100E00
100600
300700
200700
200300
F80FC0
ENDCHAR
STARTCHAR 00C5
ENCODING 197
SWIDTH 720 0
DWIDTH 18 0
BBX 18 23 0 0
BITMAP
01E000
03F000
033000
021000
033000
01E000
01E000
01E000
036000
037000
027000
063800
043800
041800
0C1C00
081C00
1FFC00
100E00
100600
300700
200700
200300
F80FC0
ENDCHAR
STARTCHAR 00C6
ENCODING 198
SWIDTH 1000 0
DWIDTH 25 0
BBX 24 18 0 0
BITMAP
03FFFF
00DC03
009C03
019C03
011C00
031C08
021C08
061FF8
041C08
041C08
081C00
0FFC00
101C00
101C00
301C03
201C03
601C03
F87FFF
ENDCHAR
STARTCHAR 00C7
ENCODING 199
SWIDTH 760 0
DWIDTH 19 0
BBX 16 23 1 -5
BITMAP
03FC
0E0F
1807
3003
7001
7000
6000
E000
E000
E000
E000
6000
7000
7003
3003
1806
0E0C
03F0
0060
0020
0030
01F0
01E0
ENDCHAR
STARTCHAR 00C8
ENCODING 200
SWIDTH 720 0
DWIDTH 18 0
BBX 15 24 1 0
BITMAP
0700
0300
0080
0000
0000
0000
FFFE
1802
1802
1802
1800
1818
1818
1FF8
1818
1818
1800
1800
1800
1800
1802
1802
1802
FFFE
ENDCHAR
STARTCHAR 00C9
ENCODING 201
SWIDTH 720 0
DWIDTH 18 0
BBX 15 24 1 0
BITMAP
0060
00C0
0180
0000
0000
0000
FFFE
1802
1802
1802
1800
1818
1818
1FF8
1818
1818
1800
1800
1800
1800
1802
1802
1802
FFFE
ENDCHAR
STARTCHAR 00CA
ENCODING 202
SWIDTH 720 0
DWIDTH 18 0
BBX 15 24 1 0
BITMAP
01C0
0360
0430
0000
0000
0000
FFFE
1802
1802
1802
1800
1818
1818
1FF8
1818
1818
1800
1800
1800
1800
1802
1802
1802
FFFE
ENDCHAR
STARTCHAR 00CB
ENCODING 203
SWIDTH 720 0
DWIDTH 18 0
BBX 15 23 1 0
BITMAP
0670
0E70
0670
0000
0000
FFFE
1802
1802
1802
1800
1818
1818
1FF8
1818
1818
1800
1800
1800
1800
1802
1802
1802
FFFE
ENDCHAR
STARTCHAR 00CC
ENCODING 204
SWIDTH 400 0
DWIDTH 10 0
BBX 8 24 1 0
BITMAP
60
30
18
00
00
00
FF
18
18
18
18
18
18
18
18
18
18
18
18
18
18
18
18
FF
ENDCHAR
STARTCHAR 00CD
ENCODING 205
SWIDTH 400 0
DWIDTH 10 0
BBX 8 24 1 0
BITMAP
0E
0C
10
00
00
00
FF
18
18
18
18
18
18
18
18
18
18
18
18
18
18
18
18
FF
ENDCHAR
STARTCHAR 00CE
ENCODING 206
SWIDTH 400 0
DWIDTH 10 0
BBX 8 24 1 0
BITMAP
3C
7C
42
00
00
00
FF
18
18
18
18
18
18
18
18
18
18
18
18
18
18
18
18
FF
ENDCHAR
STARTCHAR 00CF
ENCODING 207
SWIDTH 400 0
DWIDTH 10 0
BBX 8 23 1 0
BITMAP
66
E7
66
00
00
FF
18
18
18
18
18
18
18
18
18
18
18
18
18
18
18
18
FF
ENDCHAR
STARTCHAR 00D0
ENCODING 208
SWIDTH 800 0
DWIDTH 20 0
BBX 18 18 1 0
BITMAP
FFF000
181C00
180E00
180700
180380
180380
180180
1801C0
FF81C0
1801C0
1801C0
180180
180380
180380
180700
180E00
181C00
FFE000
ENDCHAR
STARTCHAR 00D1
ENCODING 209
SWIDTH 880 0
DWIDTH 22 0
BBX 20 23 1 0
BITMAP
01C400
03FC00
023800
000000
000000
F807F0
1C0080
1E0080
170080
170080
138080
11C080
10E080
10E080
107080
103880
101C80
100C80
100E80
100780
100380
100180
FE0180
ENDCHAR
STARTCHAR 00D2
ENCODING 210
SWIDTH 840 0
DWIDTH 21 0
BBX 18 24 1 0
BITMAP
018000
00C000
004000
000000
000000
000000
03F000
0E0C00
180700
300380
700180
7001C0
6001C0
E001C0
E001C0
E001C0
E001C0
6001C0
7001C0
700180
300300
180700
0E0C00
03F000
ENDCHAR
STARTCHAR 00D3
ENCODING 211
SWIDTH 840 0
DWIDTH 21 0
BBX 18 24 1 0
BITMAP
003000
006000
00C000
000000
000000
000000
03F000
0E0C00
180700
300380
700180
7001C0
6001C0
E001C0
E001C0
E001C0
E001C0
6001C0
7001C0
700180
300300
180700
0E0C00
03F000
ENDCHAR
STARTCHAR 00D4
ENCODING 212
SWIDTH 840 0
DWIDTH 21 0
BBX 18 24 1 0
BITMAP
00E000
01B000
021800
000000
000000
000000
03F000
0E0C00
180700
300380
700180
7001C0
6001C0
E001C0
E001C0
E001C0
E001C0
6001C0
7001C0
700180
300300
180700
0E0C00
03F000
ENDCHAR
STARTCHAR 00D5
ENCODING 213
SWIDTH 840 0
DWIDTH 21 0
BBX 18 23 1 0
BITMAP
038800
07F800
067000
000000
000000
03F000
0E0C00
180700
300380
700180
7001C0
6001C0
E001C0
E001C0
E001C0
E001C0
6001C0
7001C0
700180
300300
180700
0E0C00
03F000
ENDCHAR
STARTCHAR 00D6
ENCODING 214
SWIDTH 840 0
DWIDTH 21 0
BBX 18 23 1 0
BITMAP
031800
073800
031800
000000
000000
03F000
0E0C00
180700
300380
700180
7001C0
6001C0
E001C0
E001C0
E001C0
E001C0
6001C0
7001C0
700180
300300
180700
0E0C00
03F000
ENDCHAR
STARTCHAR 00D7
ENCODING 215
SWIDTH 840 0
DWIDTH 21 0
BBX 13 14 4 1
BITMAP
8008
C018
6030
3060
18C0
0D80
0700
0700
0D80
18C0
3060
6030
C018
8008
ENDCHAR
STARTCHAR 00D8
ENCODING 216
SWIDTH 840 0
DWIDTH 21 0
BBX 18 18 1 0
BITMAP
03F8C0
0E0F80
180700
300780
700D80
7009C0
6011C0
E021C0
E061C0
E0C1C0
E181C0
6301C0
7601C0
7C0180
380300
380700
6E0C00
43F800
ENDCHAR
STARTCHAR 00D9
ENCODING 217
SWIDTH 840 0
DWIDTH 21 0
BBX 19 24 1 0
BITMAP
01C000
00C000
006000
000000
000000
000000
FE07E0
380180
380180
380180
380180
380180
380180
380180
380180
380180
380180
180180
180180
180100
180100
1C0300
0E0600
03F800
ENDCHAR
STARTCHAR 00DA
ENCODING 218
SWIDTH 840 0
DWIDTH 21 0
BBX 19 24 1 0
BITMAP
003800
003000
006000
000000
000000
000000
FE07E0
380180
380180
380180
380180
380180
380180
380180
380180
380180
380180
180180
180180
180100
180100
1C0300
0E0600
03F800
ENDCHAR
STARTCHAR 00DB
ENCODING 219
SWIDTH 840 0
DWIDTH 21 0
BBX 19 24 1 0
BITMAP
00F000
00F800
010800
000000
000000
000000
FE07E0
380180
380180
380180
380180
380180
380180
380180
380180
380180
380180
180180
180180
180100
180100
1C0300
0E0600
03F800
ENDCHAR
STARTCHAR 00DC
ENCODING 220
SWIDTH 840 0
DWIDTH 21 0
BBX 19 23 1 0
BITMAP
019800
039C00
019800
000000
000000
FE07E0
380180
380180
380180
380180
380180
380180
380180
380180
380180
380180
180180
180180
180100
180100
1C0300
0E0600
03F800
ENDCHAR
STARTCHAR 00DD
ENCODING 221
SWIDTH 680 0
DWIDTH 17 0
BBX 17 24 0 0
BITMAP
006000
00C000
018000
000000
000000
000000
FE1F80
380600
380400
1C0C00
0C1800
0E1000
073000
072000
03C000
01C000
01C000
01C000
01C000
01C000
01C000
01C000
01C000
07F000
ENDCHAR
STARTCHAR 00DE
ENCODING 222
SWIDTH 680 0
DWIDTH 17 0
BBX 15 18 1 0
BITMAP
FF00
1800
1800
1800
1FF0
1838
180C
180E
180E
180E
180E
180C
1838
1FF0
1800
1800
1800
FF00
ENDCHAR
STARTCHAR 00DF
ENCODING 223
SWIDTH 680 0
DWIDTH 17 0
BBX 15 19 1 0
BITMAP
0FC0
1860
3030
3030
3078
31C0
3180
3180
3180
31C0
30F0
3038
301C
300C
300E
360E
360C
3718
F1F0
ENDCHAR
STARTCHAR 00E0
ENCODING 224
SWIDTH 600 0
DWIDTH 15 0
BBX 13 20 1 0
BITMAP
3800
1800
0C00
0400
0200
0000
0000
1F80
70C0
60E0
4060
0060
1FE0
7060
6060
E060
E060
6060
70E0
3F78
ENDCHAR
STARTCHAR 00E1
ENCODING 225
SWIDTH 600 0
DWIDTH 15 0
BBX 13 20 1 0
BITMAP
01C0
0180
0300
0600
0400
0000
0000
1F80
70C0
60E0
4060
0060
1FE0
7060
6060
E060
E060
6060
70E0
3F78
ENDCHAR
STARTCHAR 00E2
ENCODING 226
SWIDTH 600 0
DWIDTH 15 0
BBX 13 20 1 0
BITMAP
0600
0F00
1900
1980
30C0
0000
0000
1F80
70C0
60E0
4060
0060
1FE0
7060
6060
E060
E060
6060
70E0
3F78
ENDCHAR
STARTCHAR 00E3
ENCODING 227
SWIDTH 600 0
DWIDTH 15 0
BBX 13 20 1 0
BITMAP
1C40
3CC0
27C0
2380
0000
0000
0000
1F80
70C0
60E0
4060
0060
1FE0
7060
6060
E060
E060
6060
70E0
3F78
ENDCHAR
STARTCHAR 00E4
ENCODING 228
SWIDTH 600 0
DWIDTH 15 0
BBX 13 19 1 0
BITMAP
1980
39C0
1980
0000
0000
0000
1F80
70C0
60E0
4060
0060
1FE0
7060
6060
E060
E060
6060
70E0
3F78
ENDCHAR
STARTCHAR 00E5
ENCODING 229
SWIDTH 600 0
DWIDTH 15 0
BBX 13 22 1 0
BITMAP
0F00
1F80
1980
1080
1980
1F80
0F00
0000
0000
1F80
70C0
60E0
4060
0060
1FE0
7060
6060
E060
E060
6060
70E0
3F78
ENDCHAR
STARTCHAR 00E6
ENCODING 230
SWIDTH 960 0
DWIDTH 24 0
BBX 21 13 1 0
BITMAP
1F07C0
70D860
60F830
407038
007038
1FF018
707FF8
607000
E07000
E07018
E07010
70D870
3F0FC0
ENDCHAR
STARTCHAR 00E7
ENCODING 231
SWIDTH 560 0
DWIDTH 14 0
BBX 12 18 1 -5
BITMAP
0FC0
3860
7020
6020
E000
E000
E000
E000
E000
6030
7060
38E0
0F80
0300
0100
0180
0F80
0F00
ENDCHAR
STARTCHAR 00E8
ENCODING 232
SWIDTH 600 0
DWIDTH 15 0
BBX 13 20 1 0
BITMAP
1800
1C00
0C00
0600
0200
0000
0000
0F80
38E0
7060
6030
E030
E030
FFF8
E000
E000
6030
7030
3860
0F80
ENDCHAR
STARTCHAR 00E9
ENCODING 233
SWIDTH 600 0
DWIDTH 15 0
BBX 13 20 1 0
BITMAP
00C0
0180
0300
0300
0600
0000
0000
0F80
38E0
7060
6030
E030
E030
FFF8
E000
E000
6030
7030
3860
0F80
ENDCHAR
STARTCHAR 00EA
ENCODING 234
SWIDTH 600 0
DWIDTH 15 0
BBX 13 20 1 0
BITMAP
0700
0F00
0D80
1880
10C0
0000
0000
0F80
38E0
7060
6030
E030
E030
FFF8
E000
E000
6030
7030
3860
0F80
ENDCHAR
STARTCHAR 00EB
ENCODING 235
SWIDTH 600 0
DWIDTH 15 0
BBX 13 19 1 0
BITMAP
18C0
19C0
18C0
0000
0000
0000
0F80
38E0
7060
6030
E030
E030
FFF8
E000
E000
6030
7030
3860
0F80
ENDCHAR
STARTCHAR 00EC
ENCODING 236
SWIDTH 320 0
DWIDTH 8 0
BBX 7 20 0 0
BITMAP
E0
60
30
10
08
00
00
78
18
18
18
18
18
18
18
18
18
18
18
7E
ENDCHAR
STARTCHAR 00ED
ENCODING 237
SWIDTH 320 0
DWIDTH 8 0
BBX 7 20 1 0
BITMAP
0E
0C
18
30
20
00
00
F0
30
30
30
30
30
30
30
30
30
30
30
FC
ENDCHAR
STARTCHAR 00EE
ENCODING 238
SWIDTH 320 0
DWIDTH 8 0
BBX 8 20 0 0
BITMAP
18
3C
24
66
C3
00
00
78
18
18
18
18
18
18
18
18
18
18
18
7E
ENDCHAR
STARTCHAR 00EF
ENCODING 239
SWIDTH 320 0
DWIDTH 8 0
BBX 8 19 0 0
BITMAP
66
E7
66
00
00
00
78
18
18
18
18
18
18
18
18
18
18
18
7E
ENDCHAR
STARTCHAR 00F0
ENCODING 240
SWIDTH 600 0
DWIDTH 15 0
BBX 13 19 1 0
BITMAP
3000
0C60
0780
0F80
39C0
00E0
0FE0
3870
7030
6030
E038
E038
E038
E038
E038
6030
7070
38E0
0F80
ENDCHAR
STARTCHAR 00F1
ENCODING 241
SWIDTH 640 0
DWIDTH 16 0
BBX 14 20 1 0
BITMAP
0E20
1F20
19E0
11C0
0000
0000
0000
F3E0
3470
3830
3830
3030
3030
3030
3030
3030
3030
3030
3030
FCFC
ENDCHAR
STARTCHAR 00F2
ENCODING 242
SWIDTH 600 0
DWIDTH 15 0
BBX 13 20 1 0
BITMAP
1800
0C00
0C00
0600
0300
0000
0000
0F80
38E0
7070
6030
E038
E038
E038
E038
E038
6030
7070
38E0
0F80
ENDCHAR
STARTCHAR 00F3
ENCODING 243
SWIDTH 600 0
DWIDTH 15 0
BBX 13 20 1 0
BITMAP
00C0
0180
0180
0300
0600
0000
0000
0F80
38E0
7070
6030
E038
E038
E038
E038
E038
6030
7070
38E0
0F80
ENDCHAR
STARTCHAR 00F4
ENCODING 244
SWIDTH 600 0
DWIDTH 15 0
BBX 13 20 1 0
BITMAP
0700
0700
0D80
18C0
1040
0000
0000
0F80
38E0
7070
6030
E038
E038
E038
E038
E038
6030
7070
38E0
0F80
ENDCHAR
STARTCHAR 00F5
ENCODING 245
SWIDTH 600 0
DWIDTH 15 0
BBX 13 20 1 0
BITMAP
0C60
1E40
13C0
3180
0000
0000
0000
0F80
38E0
7070
6030
E038
E038
E038
E038
E038
6030
7070
38E0
0F80
ENDCHAR
STARTCHAR 00F6
ENCODING 246
SWIDTH 600 0
DWIDTH 15 0
BBX 13 19 1 0
BITMAP
18C0
1DC0
18C0
0000
0000
0000
0F80
38E0
7070
6030
E038
E038
E038
E038
E038
6030
7070
38E0
0F80
ENDCHAR
STARTCHAR 00F7
ENCODING 247
SWIDTH 840 0
DWIDTH 21 0
BBX 15 12 3 2
BITMAP
0380
0380
0380
0000
0000
FFFE
FFFE
0000
0000
0380
0380
0380
ENDCHAR
STARTCHAR 00F8
ENCODING 248
SWIDTH 600 0
DWIDTH 15 0
BBX 13 14 1 0
BITMAP
0F98
38F0
7070
60F0
E1B8
E138
E238
E438
EC38
7830
7070
78E0
CF80
8000
ENDCHAR
STARTCHAR 00F9
ENCODING 249
SWIDTH 640 0
DWIDTH 16 0
BBX 14 20 1 0
BITMAP
3800
1800
0C00
0600
0200
0000
0000
F0F0
3030
3030
3030
3030
3030
3030
3030
3030
3030
3070
38B0
0F3C
ENDCHAR
STARTCHAR 00FA
ENCODING 250
SWIDTH 640 0
DWIDTH 16 0
BBX 14 20 1 0
BITMAP
01C0
0180
0300
0200
0600
0000
0000
F0F0
3030
3030
3030
3030
3030
3030
3030
3030
3030
3070
38B0
0F3C
ENDCHAR
STARTCHAR 00FB
ENCODING 251
SWIDTH 640 0
DWIDTH 16 0
BBX 14 20 1 0
BITMAP
0600
0F00
0980
1880
10C0
0000
0000
F0F0
3030
3030
3030
3030
3030
3030
3030
3030
3030
3070
38B0
0F3C
ENDCHAR
STARTCHAR 00FC
ENCODING 252
SWIDTH 640 0
DWIDTH 16 0
BBX 14 19 1 0
BITMAP
19C0
39C0
19C0
0000
0000
0000
F0F0
3030
3030
3030
3030
3030
3030
3030
3030
3030
3070
38B0
0F3C
ENDCHAR
STARTCHAR 00FD
ENCODING 253
SWIDTH 560 0
DWIDTH 14 0
BBX 14 25 0 -5
BITMAP
00E0
00C0
0180
0100
0200
0000
0000
FC7C
3010
3010
3830
1820
1C60
0C40
0C40
0EC0
0680
0780
0700
0300
0300
0200
0600
4400
7800
ENDCHAR
STARTCHAR 00FE
ENCODING 254
SWIDTH 640 0
DWIDTH 16 0
BBX 14 24 1 -5
BITMAP
F000
3000
3000
3000
3000
3000
33E0
3C70
3838
3018
301C
301C
301C
301C
301C
3018
3838
3C70
33E0
3000
3000
3000
3000
FC00
ENDCHAR
STARTCHAR 00FF
ENCODING 255
SWIDTH 560 0
DWIDTH 14 0
BBX 14 24 0 -5
BITMAP
0CC0
1CE0
0CE0
0000
0000
0000
FC7C
3010
3010
3830
1820
1C60
0C40
0C40
0EC0
0680
0780
0700
0300
0300
0200
0600
4400
7800
ENDCHAR
STARTCHAR 0106
ENCODING 262
SWIDTH 760 0
DWIDTH 19 0
BBX 16 24 1 0
BITMAP
0070
0060
00C0
0000
0000
0000
03FC
0E0F
1807
3003
7001
7000
6000
E000
E000
E000
E000
6000
7000
7003
3003
1806
0E0C
03F0
ENDCHAR
STARTCHAR 0107
ENCODING 263
SWIDTH 560 0
DWIDTH 14 0
BBX 12 20 1 0
BITMAP
00C0
0180
0300
0300
0600
0000
0000
0FC0
3860
7020
6020
E000
E000
E000
E000
E000
6030
7060
38E0
0F80
ENDCHAR
STARTCHAR 010C
ENCODING 268
SWIDTH 760 0
DWIDTH 19 0
BBX 16 24 1 0
BITMAP
0210
01F0
01E0
0000
0000
0000
03FC
0E0F
1807
3003
7001
7000
6000
E000
E000
E000
E000
6000
7000
7003
3003
1806
0E0C
03F0
ENDCHAR
STARTCHAR 010D
ENCODING 269
SWIDTH 560 0
DWIDTH 14 0
BBX 12 20 1 0
BITMAP
10C0
1880
0D80
0F00
0700
0000
0000
0FC0
3860
7020
6020
E000
E000
E000
E000
E000
6030
7060
38E0
0F80
ENDCHAR
STARTCHAR 0111
ENCODING 273
SWIDTH 640 0
DWIDTH 16 0
BBX 14 19 1 0
BITMAP
00F0
0030
0030
03FC
0030
0030
1F30
38B0
7070
6030
E030
E030
E030
E030
E030
6030
7070
38F0
1F3C
ENDCHAR
STARTCHAR 011E
ENCODING 286
SWIDTH 800 0
DWIDTH 20 0
BBX 17 24 1 0
BITMAP
061800
03F000
01E000
000000
000000
000000
03FC00
0E0F00
180300
300300
700100
700000
600000
E00000
E00000
E01F80
E00180
600180
700180
700180
300180
180380
0E0F80
03FC00
ENDCHAR
STARTCHAR 011F
ENCODING 287
SWIDTH 640 0
DWIDTH 16 0
BBX 14 25 1 -5
BITMAP
1020
1860
0FC0
0780
0000
0000
0000
1F3C
38F0
7070
6030
E030
E030
E030
E030
E030
6030
7070
38F0
1F30
0030
6030
6060
70E0
1F80
ENDCHAR
STARTCHAR 0130
ENCODING 304
SWIDTH 400 0
DWIDTH 10 0
BBX 8 23 1 0
BITMAP
18
18
18
00
00
FF
18
18
18
18
18
18
18
18
18
18
18
18
18
18
18
18
FF
ENDCHAR
STARTCHAR 0131
ENCODING 305
SWIDTH 320 0
DWIDTH 8 0
BBX 6 13 1 0
BITMAP
F0
30
30
30
30
30
30
30
30
30
30
30
FC
ENDCHAR
STARTCHAR 0141
ENCODING 321
SWIDTH 680 0
DWIDTH 17 0
BBX 15 18 1 0
BITMAP
FF00
1800
1800
1800
1800
18C0
1980
1F00
1C00
1800
7800
F800
1800
1800
1802
1802
1802
FFFE
ENDCHAR
STARTCHAR 0142
ENCODING 322
SWIDTH 320 0
DWIDTH 8 0
BBX 6 19 1 0
BITMAP
F0
30
30
30
30
30
30
3C
38
70
F0
B0
30
30
30
30
30
30
FC
ENDCHAR
STARTCHAR 0152
ENCODING 338
SWIDTH 1120 0
DWIDTH 28 0
BBX 25 18 1 0
BITMAP
01FFFF80
0F060080
1C060080
38060080
70060000
70060600
60060600
6007FE00
E0060600
E0060600
60060000
60060000
70060000
70060000
38060080
1C060080
0F060080
03FFFF80
ENDCHAR
STARTCHAR 0153
ENCODING 339
SWIDTH 1000 0
DWIDTH 25 0
BBX 22 13 1 0
BITMAP
0F83E0
38EE38
707C18
60381C
E0380C
E0380C
E03FFC
E03800
E03800
60380C
707C0C
38EE18
0F83E0
ENDCHAR
STARTCHAR 015E
ENCODING 350
SWIDTH 680 0
DWIDTH 17 0
BBX 13 23 2 -5
BITMAP
1FC0
7070
6030
E010
C010
E000
F000
7C00
3F80
0FE0
01F8
0038
0018
C018
C018
C038
F070
3FC0
0100
0180
0180
0F80
0F00
ENDCHAR
STARTCHAR 015F
ENCODING 351
SWIDTH 520 0
DWIDTH 13 0
BBX 11 18 1 -5
BITMAP
1F00
61C0
60C0
E040
6000
7C00
3F80
07C0
00C0
C0E0
C0C0
E1C0
3F00
0600
0200
0300
1F00
1E00
ENDCHAR
STARTCHAR 0160
ENCODING 352
SWIDTH 680 0
DWIDTH 17 0
BBX 13 24 2 0
BITMAP
18C0
0D80
0700
0000
0000
0000
1FC0
7070
6030
E010
C010
E000
F000
7C00
3F80
0FE0
01F8
0038
0018
C018
C018
C038
F070
3FC0
ENDCHAR
STARTCHAR 0161
ENCODING 353
SWIDTH 520 0
DWIDTH 13 0
BBX 11 20 1 0
BITMAP
2080
3100
1B00
0E00
0E00
0000
0000
1F00
61C0
60C0
E040
6000
7C00
3F80
07C0
00C0
C0E0
C0C0
E1C0
3F00
ENDCHAR
STARTCHAR 0178
ENCODING 376
SWIDTH 680 0
DWIDTH 17 0
BBX 17 23 0 0
BITMAP
063000
0E7000
063000
000000
000000
FE1F80
380600
380400
1C0C00
0C1800
0E1000
073000
072000
03C000
01C000
01C000
01C000
01C000
01C000
01C000
01C000
01C000
07F000
ENDCHAR
STARTCHAR 017D
ENCODING 381
SWIDTH 680 0
DWIDTH 17 0
BBX 15 24 1 0
BITMAP
0C60
06C0
0380
0000
0000
0000
7FFE
401E
403C
4038
0070
00F0
00E0
01C0
03C0
0780
0700
0F00
1E00
1C00
3802
7802
7002
FFFE
ENDCHAR
STARTCHAR 017E
ENCODING 382
SWIDTH 520 0
DWIDTH 13 0
BBX 11 20 1 0
BITMAP
3080
1180
1B00
0F00
0E00
0000
0000
FFE0
C0E0
C1C0
0380
0300
0700
0E00
1C00
1C00
3800
7020
E020
FFE0
ENDCHAR
STARTCHAR 0192
ENCODING 402
SWIDTH 640 0
DWIDTH 16 0
BBX 15 23 0 -5
BITMAP
003C
0066
00C2
00C2
00C0
01C0
01C0
0180
0FF8
0180
0180
0180
0380
0380
0380
0300
0300
0300
0300
C700
C600
C600
7800
ENDCHAR
STARTCHAR 02C6
ENCODING 710
SWIDTH 520 0
DWIDTH 13 0
BBX 7 5 3 15
BITMAP
38
78
6C
C4
86
ENDCHAR
STARTCHAR 02C7
ENCODING 711
SWIDTH 520 0
DWIDTH 13 0
BBX 7 5 3 15
BITMAP
86
C4
6C
78
38
ENDCHAR
STARTCHAR 02D8
ENCODING 728
SWIDTH 520 0
DWIDTH 13 0
BBX 8 4 2 16
BITMAP
C1
43
7E
3C
ENDCHAR
STARTCHAR 02D9
ENCODING 729
SWIDTH 520 0
DWIDTH 13 0
BBX 3 3 5 16
BITMAP
C0
E0
C0
ENDCHAR
STARTCHAR 02DA
ENCODING 730
SWIDTH 520 0
DWIDTH 13 0
BBX 7 7 3 15
BITMAP
38
FC
C4
86
C4
FC
78
ENDCHAR
STARTCHAR 02DB
ENCODING 731
SWIDTH 520 0
DWIDTH 13 0
BBX 5 5 4 -5
BITMAP
40
C0
C0
F8
78
ENDCHAR
STARTCHAR 02DC
ENCODING 732
SWIDTH 520 0
DWIDTH 13 0
BBX 8 4 2 16
BITMAP
71
79
CF
86
ENDCHAR
STARTCHAR 02DD
ENCODING 733
SWIDTH 520 0
DWIDTH 13 0
BBX 8 5 3 15
BITMAP
33
26
66
4C
C8
ENDCHAR
STARTCHAR 03A9
ENCODING 937
SWIDTH 840 0
DWIDTH 21 0
BBX 17 18 2 0
BITMAP
07F000
1C1C00
380E00
700700
E00300
E00380
C00380
C00380
C00380
C00380
C00380
E00380
600300
700600
980C80
8C3880
FE3F80
FE3F80
ENDCHAR
STARTCHAR 03C0
ENCODING 960
SWIDTH 640 0
DWIDTH 16 0
BBX 15 13 1 0
BITMAP
FFFE
3030
3030
3030
3030
3030
3030
3030
3030
3030
3030
3030
FCFC
ENDCHAR
STARTCHAR 2013
ENCODING 8211
SWIDTH 520 0
DWIDTH 13 0
BBX 13 2 0 5
BITMAP
FFF8
FFF8
ENDCHAR
STARTCHAR 2014
ENCODING 8212
SWIDTH 1000 0
DWIDTH 25 0
BBX 25 2 0 5
BITMAP
FFFFFF80
FFFFFF80
ENDCHAR
STARTCHAR 2018
ENCODING 8216
SWIDTH 320 0
DWIDTH 8 0
BBX 3 6 3 12
BITMAP
20
60
C0
C0
C0
C0
ENDCHAR
STARTCHAR 2019
ENCODING 8217
SWIDTH 320 0
DWIDTH 8 0
BBX 4 6 2 12
BITMAP
30
30
70
60
C0
80
ENDCHAR
STARTCHAR 201A
ENCODING 8218
SWIDTH 320 0
DWIDTH 8 0
BBX 4 6 2 -3
BITMAP
70
70
60
60
C0
80
ENDCHAR
STARTCHAR 201C
ENCODING 8220
SWIDTH 520 0
DWIDTH 13 0
BBX 8 6 3 12
BITMAP
21
63
C6
C6
CE
CE
ENDCHAR
STARTCHAR 201D
ENCODING 8221
SWIDTH 520 0
DWIDTH 13 0
BBX 9 6 2 12
BITMAP
3380
3380
7300
6300
C600
8400
ENDCHAR
STARTCHAR 201E
ENCODING 8222
SWIDTH 520 0
DWIDTH 13 0
BBX 9 6 2 -3
BITMAP
7380
7300
6300
6700
C600
8C00
ENDCHAR
STARTCHAR 2020
ENCODING 8224
SWIDTH 520 0
DWIDTH 13 0
BBX 11 20 1 -2
BITMAP
0C00
0C00
0C00
0C00
0C00
C4E0
FFE0
C4E0
0400
0C00
0C00
0C00
0C00
0C00
0C00
0C00
0C00
0C00
0C00
0C00
ENDCHAR
STARTCHAR 2021
ENCODING 8225
SWIDTH 520 0
DWIDTH 13 0
BBX 11 20 1 -2
BITMAP
0C00
0C00
0C00
0C00
0C00
C4E0
FFE0
CCE0
0C00
0C00
0C00
0C00
CCE0
FFE0
C4E0
0C00
0C00
0C00
0C00
0C00
ENDCHAR
STARTCHAR 2022
ENCODING 8226
SWIDTH 600 0
DWIDTH 15 0
BBX 7 7 4 6
BITMAP
78
FC
FE
FE
FE
FC
78
ENDCHAR
STARTCHAR 2026
ENCODING 8230
SWIDTH 1000 0
DWIDTH 25 0
BBX 19 3 3 0
BITMAP
C0E060
E0E0E0
C0E060
ENDCHAR
STARTCHAR 2030
ENCODING 8240
SWIDTH 1360 0
DWIDTH 34 0
BBX 31 18 1 0
BITMAP
1E018000
63018000
63030000
C1860000
C1860000
C18C0000
41880000
63180000
6331E078
3E3330CC
00661986
00C61986
00C61986
01861986
03061986
03061986
060330CC
0401E078
ENDCHAR
STARTCHAR 2039
ENCODING 8249
SWIDTH 400 0
DWIDTH 10 0
BBX 6 12 2 1
BITMAP
04
08
18
30
E0
C0
C0
E0
30
18
08
04
ENDCHAR
STARTCHAR 203A
ENCODING 8250
SWIDTH 400 0
DWIDTH 10 0
BBX 6 12 2 1
BITMAP
80
40
60
30
1C
0C
0C
1C
30
60
40
80
ENDCHAR
STARTCHAR 20AC
ENCODING 8364
SWIDTH 640 0
DWIDTH 16 0
BBX 14 18 0 0
BITMAP
03F0
063C
0C1C
1C0C
180C
1800
3800
FFE0
3800
3800
3800
FF80
3800
180C
1808
0C18
0630
03E0
ENDCHAR
STARTCHAR 2122
ENCODING 8482
SWIDTH 1000 0
DWIDTH 25 0
BBX 18 7 3 11
BITMAP
FEE1C0
927380
105580
105D80
104980
104180
38E3C0
ENDCHAR
STARTCHAR 2202
ENCODING 8706
SWIDTH 520 0
DWIDTH 13 0
BBX 11 16 1 0
BITMAP
0F00
1C80
00C0
0040
0060
0060
1EE0
31E0
61E0
60C0
E0C0
E1C0
E1C0
6180
6300
3E00
ENDCHAR
STARTCHAR 2206
ENCODING 8710
SWIDTH 680 0
DWIDTH 17 0
BBX 15 18 1 0
BITMAP
0380
0380
03C0
07C0
04C0
0CE0
0CE0
0870
1870
1030
1038
3038
201C
601C
600C
400E
FFFE
FFFE
ENDCHAR
STARTCHAR 220F
ENCODING 8719
SWIDTH 800 0
DWIDTH 20 0
BBX 18 23 1 -5
BITMAP
FFFFC0
380700
380700
380700
380700
380700
380700
380700
380700
380700
380700
380700
380700
380700
380700
380700
380700
380700
380700
380700
380700
380700
FE1FC0
ENDCHAR
STARTCHAR 2211
ENCODING 8721
SWIDTH 720 0
DWIDTH 18 0
BBX 17 23 0 -5
BITMAP
FFFE00
700200
380200
1C0200
0E0100
070000
038000
01C000
00E000
007000
003800
001C00
001800
003000
006000
00C000
018000
020080
040080
080080
300100
7FFF00
FFFF00
ENDCHAR
STARTCHAR 2212
ENCODING 8722
SWIDTH 840 0
DWIDTH 21 0
BBX 15 2 3 7
BITMAP
FFFE
FFFE
ENDCHAR
STARTCHAR 2215
ENCODING 8725
SWIDTH 160 0
DWIDTH 4 0
BBX 12 18 -4 0
BITMAP
0010
0030
0060
0060
00C0
0180
0180
0300
0600
0600
0C00
0800
1800
3000
3000
6000
C000
C000
ENDCHAR
STARTCHAR 2219
ENCODING 8729
SWIDTH 320 0
DWIDTH 8 0
BBX 4 3 2 7
BITMAP
60
F0
60
ENDCHAR
STARTCHAR 221A
ENCODING 8730
SWIDTH 640 0
DWIDTH 16 0
BBX 15 21 1 -1
BITMAP
000E
0008
0008
0018
0010
0010
0030
0020
2060
F040
3040
30C0
1880
1880
1D80
0D00
0F00
0F00
0600
0600
0400
ENDCHAR
STARTCHAR 221E
ENCODING 8734
SWIDTH 840 0
DWIDTH 21 0
BBX 15 10 3 2
BITMAP
3878
7CFC
C6C6
8382
8182
8302
8382
C6C6
7C7C
3838
ENDCHAR
STARTCHAR 222B
ENCODING 8747
SWIDTH 520 0
DWIDTH 13 0
BBX 11 23 1 -4
BITMAP
01E0
03E0
0260
0600
0600
0600
0600
0600
0E00
0E00
0E00
0E00
0E00
0E00
0E00
0C00
0C00
0C00
0C00
0C00
C800
F800
F000
ENDCHAR
STARTCHAR 2248
ENCODING 8776
SWIDTH 840 0
DWIDTH 21 0
BBX 15 9 3 3
BITMAP
3C02
FF86
C3FE
8078
0000
3C02
FF86
C3FE
00F8
ENDCHAR
STARTCHAR 2260
ENCODING 8800
SWIDTH 840 0
DWIDTH 21 0
BBX 15 14 3 0
BITMAP
0008
001C
0038
0070
FFFE
FFFE
01C0
0380
0700
FFFE
FFFE
1800
3800
7000
ENDCHAR
STARTCHAR 2264
ENCODING 8804
SWIDTH 840 0
DWIDTH 21 0
BBX 15 15 3 0
BITMAP
0002
003E
03FC
1FC0
FC00
C000
FC00
1FC0
01FC
003E
0002
0000
0000
FFFE
FFFE
ENDCHAR
STARTCHAR 2265
ENCODING 8805
SWIDTH 840 0
DWIDTH 21 0
BBX 15 15 3 0
BITMAP
8000
F800
7F80
07F0
007E
0006
007E
07F0
7F00
F800
8000
0000
0000
FFFE
FFFE
ENDCHAR
STARTCHAR 25CA
ENCODING 9674
SWIDTH 480 0
DWIDTH 12 0
BBX 12 24 0 -5
BITMAP
0600
0600
0700
0900
0980
1880
10C0
3040
2060
6020
4030
C010
C010
4030
6020
2060
3040
10C0
1880
0980
0900
0700
0600
0600
ENDCHAR
STARTCHAR FB01
ENCODING 64257
SWIDTH 680 0
DWIDTH 17 0
BBX 15 19 1 0
BITMAP
07E0
1C30
1810
3010
3000
3000
FFF8
3018
3018
3018
3018
3018
3018
3018
3018
3018
3018
3018
FC7E
ENDCHAR
STARTCHAR FB02
ENCODING 64258
SWIDTH 680 0
DWIDTH 17 0
BBX 15 19 1 0
BITMAP
07F8
1C18
3818
3018
3018
3018
FF18
3018
3018
3018
3018
3018
3018
3018
3018
3018
3018
3018
FCFE
ENDCHAR
ENDFONT
